PathFileType	4	(X/Y/Z)	C:\Users\WrightLab\Desktop\Jo\P1.2Trial4.trc
DataRate	CameraRate	NumFrames	NumMarkers	Units	OrigDataRate	OrigDataStartFrame	OrigNumFrames
100.00	100.00	       10	19	mm	100.00	394	       525
Frame#	Time	Headset_Front			Headset_Back			Headset_Left			Headset_Right			Left_Shoulder			Right_Shoulder			Sternum			C7			Left Elbow			Right Elbow			Left Wrist			Right Wrist			Left ASIS			Right ASIS			S2			Left Knee			Right Knee			Left Ankle			Right Ankle			
		X1	Y1	Z1	X2	Y2	Z2	X3	Y3	Z3	X4	Y4	Z4	X5	Y5	Z5	X6	Y6	Z6	X7	Y7	Z7	X8	Y8	Z8	X9	Y9	Z9	X10	Y10	Z10	X11	Y11	Z11	X12	Y12	Z12	X13	Y13	Z13	X14	Y14	Z14	X15	Y15	Z15	X16	Y16	Z16	X17	Y17	Z17	X18	Y18	Z18	X19	Y19	Z19	

394	3.930	-120.42380	1404.56494	1816.14172				41.96276	1487.35913	1711.23242	-184.64090	1449.11328	1689.22620	189.16844	1291.90320	1651.40222	-225.08698	1273.39478	1565.32861	-40.63855	1220.94446	1732.68469	1.69601	1340.47021	1504.74268	270.77432	1014.05664	1592.27478	-293.38599	1024.39014	1537.36951	333.69696	805.24225	1695.72583	-346.02737	811.07147	1713.57092	94.15928	916.54163	1759.57581	-170.10349	892.88696	1682.67615	58.22429	942.49225	1452.65857	93.87663	546.26117	1900.05103	-130.26141	446.93170	1620.54089	200.63780	193.08752	1920.28516				
395	3.940	-123.86566	1403.74805	1824.09351				39.61809	1486.32666	1720.50537	-187.32698	1447.34875	1698.08240	186.76476	1290.52173	1662.98303	-226.47256	1271.78442	1573.23120	-43.86784	1219.33496	1740.97876	0.66555	1339.42432	1514.48730	270.28748	1013.12018	1605.14587	-294.45547	1023.03650	1547.69763	331.71976	803.96777	1708.28223	-347.62634	811.31744	1726.02966	90.42657	914.96057	1770.33435	-173.03244	891.37488	1690.58704	58.90310	940.70099	1463.64856	87.22096	541.64850	1906.13818	-130.69000	444.73575	1625.44629	192.39447	197.63487	1952.78613				
396	3.950	-127.36552	1403.23865	1833.94971				37.66226	1483.56360	1729.69714				184.14818	1289.06445	1674.27917	-228.20920	1269.43909	1581.22241	-47.04526	1217.42883	1750.33704	-0.89109	1337.96045	1523.89795	269.02814	1011.43726	1617.67639	-295.76563	1020.72675	1556.61206	329.68579	802.38385	1720.60376	-349.10873	811.75256	1735.37683	86.66058	912.55127	1779.58447	-175.47948	889.25525	1697.06519	60.08187	939.48035	1475.29773	80.38347	536.30695	1913.54053	-131.03452	442.99698	1630.49854	182.24666	205.09436	1980.44482				
397	3.960	-129.98164	1401.62817	1843.27881	-192.52960	1444.76807	1716.68127	35.03998	1482.81616	1739.69055				181.71162	1287.47998	1685.62097	-229.72348	1268.19702	1590.04529	-49.59217	1215.78772	1760.97998	-1.52201	1336.06531	1533.81995	267.56409	1010.34436	1630.00537	-297.52557	1019.51697	1564.91858	327.33908	801.05566	1733.77258	-350.83209	811.67950	1745.35950	83.32232	910.93195	1790.66711	-178.57573	887.40619	1705.48535	61.04140	937.76483	1486.00256	74.28482	530.59552	1919.18359	-131.73929	441.65369	1635.10266	168.67078	207.99776	2003.17822				
398	3.970	-133.41591	1400.44690	1851.90735	-194.69461	1444.21558	1725.29980	32.53816	1481.09375	1749.82886				179.28642	1285.71094	1698.07031	-231.68893	1266.66321	1598.57703	-52.97079	1213.08862	1769.10864	-2.77637	1334.75220	1544.57605	265.73291	1008.41895	1641.18848	-298.37122	1017.17535	1573.36841	325.27203	798.93646	1746.42676	-352.44794	810.89185	1754.98608	79.43041	909.19800	1802.28210	-180.64389	885.62280	1713.29407	61.93994	936.57166	1497.04883	68.21350	525.20679	1925.09668	-132.00690	441.02881	1640.07849	157.32396	213.93698	2024.56482				
399	3.980	-136.92650	1399.01587	1860.92554	-196.70702	1443.15112	1734.16748	30.63924	1479.53491	1759.01208				177.21869	1284.23938	1710.06519	-232.81853	1264.18738	1605.56165	-56.08302	1212.15942	1780.01721	-3.84898	1333.15881	1553.69531	263.21252	1007.87268	1653.72327	-299.41757	1014.74414	1581.87036	321.47815	797.88000	1764.94580	-354.11685	809.72028	1764.73718	75.61913	907.94409	1814.78577	-182.94154	883.61584	1721.80969	62.84198	934.68939	1509.06946	61.44143	521.87366	1933.06787	-133.49971	439.04077	1645.63269	144.03316	219.77380	2042.36951				
400	3.990	-139.56900	1398.61572	1870.67126	-199.62787	1440.93701	1742.58667	27.23392	1478.80969	1770.72656				174.82199	1282.72034	1722.25745	-233.99768	1261.91504	1614.04883	-59.13528	1210.82483	1790.39050	-4.57881	1331.28394	1564.05920	262.99109	1004.82159	1669.46704	-300.61093	1012.10620	1589.57239	320.14227	796.81244	1776.68542	-355.94989	808.39197	1773.39172	71.72162	905.68604	1826.11133	-185.37241	881.57977	1729.61731	63.16031	932.13672	1521.35388	56.05538	518.27234	1940.53870	-134.52293	438.20920	1650.62427	132.14856	225.33275	2059.84302				
401	4.000	-142.86859	1397.41858	1879.44666	-201.53529	1440.78503	1751.85449	24.69623	1476.81152	1780.20837				172.48203	1281.31763	1732.92847	-235.92639	1260.23218	1622.91382	-62.37818	1208.68408	1798.88818	-5.52293	1328.90955	1574.93982	260.94424	1003.81708	1681.55249	-301.62683	1010.38611	1597.77795	318.63419	795.63910	1789.03076	-357.22156	806.22198	1781.54541	68.46329	904.61279	1839.08691	-187.43437	880.65594	1738.68994	64.44502	930.75708	1532.62549	50.51165	516.43610	1948.83459	-135.28247	437.31787	1657.56287	119.00767	229.51411	2073.27222				
402	4.010	-146.41254	1396.19580	1887.99475	-203.97365	1439.65527	1760.46472	22.64304	1475.23865	1790.26111				170.24553	1279.65833	1745.01270	-237.16908	1259.13074	1631.71741	-65.25243	1208.46619	1810.48584	-6.51842	1327.37622	1585.26221	259.20142	1001.76672	1695.22839	-302.69000	1009.20886	1604.45410	316.88089	794.22400	1802.05945	-358.95837	803.77441	1789.49280	64.89153	903.13806	1850.31042	-189.26622	878.74219	1747.04028	64.84901	929.05176	1544.96875	44.35224	516.92371	1958.61511	-136.96204	436.28952	1663.38037	107.57401	233.33354	2088.33667				
403	4.020	-149.71642	1394.94934	1897.49353	-206.18135	1437.45740	1768.27820	20.00536	1473.70752	1799.85449				168.17784	1278.27795	1757.56140	-238.01935	1255.60498	1638.34424	-68.61112	1206.63562	1819.55579	-6.92475	1325.89355	1594.85791	257.33295	1000.74957	1708.39673	-303.11975	1006.68231	1611.62476	314.67957	792.19598	1814.37842	-360.57291	801.09863	1796.24182	61.78554	902.36456	1863.51343	-191.04976	877.82178	1755.79138	65.23619	927.05878	1556.99756	38.05881	517.56696	1969.70752	-138.01611	435.43451	1669.77783	95.24437	236.17906	2100.17627				
